<?xml version="1.0" encoding="utf-8"?>
<!-- Generator: Adobe Illustrator 26.2.1, SVG Export Plug-In . SVG Version: 6.00 Build 0)  -->
<svg version="1.1" id="Layer_1" xmlns="http://www.w3.org/2000/svg" xmlns:xlink="http://www.w3.org/1999/xlink" x="0px" y="0px"
	 viewBox="0 0 500 500" style="enable-background:new 0 0 500 500;" xml:space="preserve">
<style type="text/css">
	.st0{fill:url(#SVGID_1_);}
	.st1{fill:#FFFFFF;}
	.st2{fill-rule:evenodd;clip-rule:evenodd;fill:#F8FBF7;stroke:#000000;stroke-width:6;stroke-miterlimit:10;}
	.st3{fill:#E20613;}
	.st4{fill:#009EE2;}
	.st5{fill:#F29100;}
	.st6{opacity:0.49;}
	.st7{opacity:0.28;}
</style>
<linearGradient id="SVGID_1_" gradientUnits="userSpaceOnUse" x1="-0.9974" y1="249.9973" x2="494.2731" y2="249.9973" gradientTransform="matrix(-3.464102e-07 1 -1 -3.464102e-07 499.9974 -2.590211e-03)">
	<stop  offset="3.000000e-02" style="stop-color:#FFFFFF"/>
	<stop  offset="1" style="stop-color:#646464"/>
</linearGradient>
<rect x="0" y="0" class="st0" width="500" height="500"/>
<g>
	<path class="st1" d="M191.3,40.7c0.4,11.8,7,17.9,18.8,17.5c-11.8,0.4-17.9,7-17.5,18.8c-0.4-11.8-7-17.9-18.8-17.5
		C185.6,59.1,191.7,52.5,191.3,40.7z"/>
</g>
<g>
	<path class="st1" d="M443.2,92.2c-3,5.2-1.9,9.6,3.3,12.7c-5.2-3-9.6-1.9-12.7,3.3c3-5.2,1.9-9.6-3.3-12.7
		C435.7,98.5,440.2,97.4,443.2,92.2z"/>
</g>
<path class="st2" d="M510.6,452.8c26.1-11.4,44.3-37.3,44.3-67.5c0-40.7-33-73.7-73.7-73.7c-24.9,0-47,12.4-60.3,31.4
	c-9.7-5.9-21-9.4-33.2-9.4c-35.2,0-63.8,28.6-63.8,63.8c0,2.3,0.1,4.6,0.4,6.9c-14.4,1.6-26.8,10.1-33.8,22
	c-7.1-8.3-17.6-13.6-29.3-13.6c-9.4,0-18.1,3.4-24.8,9c-7.2-4.3-15.7-6.8-24.7-6.8c-13.4,0-25.4,5.4-34.2,14.2
	c-8.9-10-21.8-16.4-36.2-16.4c-3.6,0-7,0.4-10.4,1.1c-5.4-20.9-24.3-36.3-46.8-36.3c-13.5,0-25.6,5.5-34.4,14.4
	c-6.1-7.4-14.5-12.9-24.1-15.3c5.1-10,7.9-21.2,7.9-33.2c0-40.7-33-73.7-73.7-73.7s-73.6,33-73.6,73.7s33,73.6,73.6,73.6
	c3.4,0,6.8-0.3,10.1-0.7c-0.1,1.3-0.2,2.6-0.2,4c0,18.1,10.8,33.9,26.2,40.9c-4.1,7.1-6.4,15.2-6.4,24c0,26.7,21.7,48.4,48.4,48.4
	c0.3,0,0.6,0,0.9-0.1c7.7,5.3,17.1,8.3,27.1,8.3c15.3,0,28.9-7.1,37.8-18.2c5.5,2.2,11.5,3.4,17.7,3.4c6,0,11.7-1.1,17-3.1
	c8,15.6,24.2,26.2,42.9,26.2c16.2,0,30.5-8,39.3-20.2c7.7,16.5,24.4,27.9,43.8,27.9c21.5,0,39.8-14.1,46-33.5
	c4.2-1.7,8.1-4.1,11.4-7.1c7.4,14.9,22.7,25.2,40.4,25.2c11.8,0,22.4-4.5,30.5-11.9c6.7,2,13.9,3.1,21.2,3.1c2.5,0,4.9-0.1,7.3-0.4
	c7.1,30.4,34.3,53.2,66.9,53.2c38,0,68.7-30.8,68.7-68.7C557.1,487.6,537.6,462,510.6,452.8z"/>
<path class="st1" d="M155.5,100.3c0-1.4-1.1-2.5-2.5-2.5s-2.5,1.1-2.5,2.5s1.1,2.5,2.5,2.5S155.5,101.7,155.5,100.3z"/>
<path class="st1" d="M120.4,50.6c0-0.9-0.8-1.7-1.7-1.7c-0.9,0-1.7,0.8-1.7,1.7s0.8,1.7,1.7,1.7S120.4,51.6,120.4,50.6z"/>
<path class="st1" d="M433,26.6c0-0.9-0.8-1.7-1.7-1.7c-0.9,0-1.7,0.8-1.7,1.7c0,0.9,0.8,1.7,1.7,1.7C432.3,28.3,433,27.6,433,26.6z"
	/>
<path class="st1" d="M363.5,205.7c0-0.6-0.5-1.2-1.2-1.2c-0.6,0-1.2,0.5-1.2,1.2c0,0.6,0.5,1.2,1.2,1.2
	C362.9,206.9,363.5,206.4,363.5,205.7z"/>
<path class="st1" d="M300.9,52.6c0-0.6-0.5-1.2-1.2-1.2c-0.6,0-1.2,0.5-1.2,1.2c0,0.6,0.5,1.2,1.2,1.2S300.9,53.2,300.9,52.6z"/>
<path class="st1" d="M161.6,134.1c0-0.8-0.7-1.5-1.5-1.5s-1.5,0.7-1.5,1.5s0.7,1.5,1.5,1.5C160.9,135.6,161.6,134.9,161.6,134.1z"/>
<path class="st1" d="M91.6,195.7c0-1.1-0.9-2-2-2s-2,0.9-2,2s0.9,2,2,2S91.6,196.8,91.6,195.7z"/>
<g>
	<path d="M249.2,57.4C259.4,67.2,267,78,272,90c5,12,7.5,25.5,7.5,40.6c0,0.2,0,0.3-0.1,0.4c0,0.1-0.1,0.3-0.1,0.4l15.9,10.6
		c1.4,1,2.6,2.2,3.4,3.6s1.2,3,1.2,4.8v33.9c0,1.8-0.7,3.1-2.2,4.2s-3.1,1.1-4.8,0.4l-27.1-10.7l-40.8-0.1l-27.1,11
		c-1.7,0.7-3.3,0.5-4.8-0.5c-1.5-1.1-2.2-2.5-2.2-4.3l0-33.7c0-1.8,0.4-3.4,1.1-4.9s1.9-2.7,3.3-3.7l15.9-10.6c0-0.2,0-0.3,0.1-0.4
		c0-0.1,0.1-0.3,0.1-0.4c0-15.1,2.5-28.6,7.4-40.5c4.9-11.9,12.5-22.8,22.8-32.6c0.5-0.5,1-0.8,1.7-1.1c0.6-0.2,1.4-0.4,2.2-0.4
		c0.8,0,1.5,0.1,2.1,0.3C248.1,56.6,248.7,56.9,249.2,57.4z"/>
	<path class="st3" d="M219.2,169.4c-1.4-4.3-2.7-8.7-3.9-13.2s-2.1-8.9-2.8-13.3l-11.4,7.6l0,0l0,0v26.2l0,0l0,0L219.2,169.4z"/>
	<path class="st1" d="M243.6,69.9c-7.8,8.6-13.4,17.7-16.9,27.4c-3.5,9.7-5.2,20.8-5.2,33.3c0,5,0.7,10.8,2,17.5
		c1.4,6.7,3.3,13.3,5.8,20l0,0l0,0h32l0,0l0,0c2.5-6.7,4.4-13.3,5.8-20c1.4-6.7,2-12.5,2-17.5c0-12.5-1.7-23.6-5.2-33.2
		s-9.1-18.7-16.8-27.3c-0.2-0.2-0.5-0.4-0.8-0.6c-0.3-0.2-0.6-0.2-1-0.2c-0.3,0-0.6,0.1-0.9,0.2S243.9,69.7,243.6,69.9z"/>
	<path class="st4" d="M245.4,128.8c-3.2,0-6-1.2-8.4-3.6c-2.4-2.4-3.6-5.2-3.6-8.4c0-3.2,1.2-6,3.6-8.4c2.4-2.4,5.2-3.6,8.4-3.6
		c3.2,0,6,1.2,8.4,3.6c2.4,2.4,3.6,5.2,3.6,8.4c0,3.2-1.2,6-3.6,8.4C251.4,127.6,248.6,128.8,245.4,128.8z"/>
	<path class="st3" d="M271.5,169.6l18.1,7.2c0,0,0,0,0,0c0,0,0,0,0,0v-26.2l0,0l0,0l-11.3-7.7c-0.7,4.4-1.7,8.9-2.8,13.4
		C274.3,160.8,273,165.2,271.5,169.6z"/>
	<path d="M223.8,208.4c0-5.6,2-10.5,6-14.6c4-4.1,8.8-6.1,14.4-6.1s10.4,2,14.4,6.1c4,4.1,6,8.9,6,14.6c0,4.2-1.5,9.1-4.5,14.9
		c-3,5.7-8.3,13.6-15.8,23.5c-7.5-9.9-12.9-17.8-15.9-23.5C225.3,217.6,223.8,212.6,223.8,208.4z"/>
	<path class="st5" d="M234,208.5c0.1,2.3,1,5.2,2.6,8.7c1.7,3.5,4.2,7.5,7.6,12.2c3.4-4.7,5.9-8.7,7.6-12.2c1.7-3.5,2.6-6.3,2.6-8.7
		c0.2-2.9-0.8-5.4-2.8-7.5c-2-2.1-4.5-3.2-7.5-3.2c-3,0.1-5.5,1.2-7.5,3.2S233.8,205.7,234,208.5z"/>
</g>
<g class="st6">
	<path d="M149.4,160.1c8,7.6,14,16.1,17.9,25.5c3.9,9.3,5.8,19.9,5.8,31.7c0,0.1,0,0.2,0,0.3c0,0.1,0,0.2,0,0.3l12.4,8.3
		c1.1,0.8,2,1.7,2.6,2.8c0.6,1.1,0.9,2.4,0.9,3.8v26.5c0,1.4-0.6,2.5-1.7,3.2c-1.2,0.8-2.4,0.9-3.7,0.3l-21.1-8.4l-31.9-0.1
		l-21.1,8.6c-1.3,0.6-2.6,0.4-3.7-0.4c-1.2-0.8-1.7-2-1.7-3.3v-26.3c0-1.4,0.3-2.6,0.9-3.8c0.6-1.2,1.5-2.1,2.6-2.9l12.4-8.3
		c0-0.1,0-0.2,0-0.3c0-0.1,0-0.2,0-0.3c0-11.8,1.9-22.3,5.8-31.6c3.9-9.3,9.8-17.8,17.8-25.4c0.4-0.4,0.8-0.7,1.3-0.8
		c0.5-0.2,1.1-0.3,1.7-0.3s1.2,0.1,1.6,0.2C148.7,159.4,149.1,159.7,149.4,160.1z"/>
	<path class="st3" d="M126.1,247.5c-1.1-3.4-2.1-6.8-3.1-10.3c-0.9-3.5-1.6-6.9-2.2-10.4l-8.9,5.9l0,0l0,0v20.5l0,0l0,0L126.1,247.5
		z"/>
	<path class="st1" d="M145.1,169.8c-6.1,6.7-10.5,13.8-13.2,21.4c-2.7,7.5-4.1,16.2-4.1,26c0,3.9,0.5,8.4,1.6,13.6
		s2.6,10.4,4.5,15.6l0,0l0,0h25l0,0l0,0c1.9-5.2,3.4-10.4,4.5-15.6c1.1-5.2,1.6-9.7,1.6-13.6c0-9.8-1.3-18.4-4-25.9
		s-7.1-14.6-13.2-21.3c-0.2-0.2-0.4-0.3-0.7-0.5c-0.3-0.1-0.5-0.2-0.8-0.2s-0.5,0-0.7,0.1C145.5,169.5,145.3,169.6,145.1,169.8z"/>
	<path class="st4" d="M146.5,215.8c-2.5,0-4.7-0.9-6.5-2.8c-1.8-1.8-2.8-4-2.8-6.5s0.9-4.7,2.8-6.5c1.8-1.8,4-2.8,6.5-2.8
		c2.5,0,4.7,0.9,6.5,2.8s2.8,4,2.8,6.5c0,2.5-0.9,4.7-2.8,6.5C151.2,214.9,149,215.8,146.5,215.8z"/>
	<path class="st3" d="M166.9,247.6l14.1,5.6c0,0,0,0,0,0s0,0,0,0l0-20.5l0,0l0,0l-8.8-6c-0.6,3.4-1.3,6.9-2.2,10.5
		S168.1,244.3,166.9,247.6z"/>
	<path d="M129.6,278c0-4.4,1.6-8.2,4.7-11.4s6.9-4.8,11.3-4.8s8.1,1.6,11.3,4.8c3.1,3.2,4.7,7,4.7,11.4c0,3.3-1.2,7.1-3.5,11.6
		c-2.3,4.5-6.5,10.6-12.4,18.4c-5.9-7.8-10-13.9-12.4-18.4C130.8,285.1,129.6,281.2,129.6,278z"/>
	<path class="st5" d="M137.6,278.1c0.1,1.8,0.8,4.1,2.1,6.8c1.3,2.7,3.3,5.9,5.9,9.5c2.6-3.6,4.6-6.8,5.9-9.5c1.3-2.7,2-4.9,2.1-6.8
		c0.1-2.3-0.6-4.2-2.2-5.8c-1.6-1.6-3.5-2.5-5.8-2.5c-2.3,0.1-4.3,0.9-5.8,2.5S137.5,275.8,137.6,278.1z"/>
</g>
<g class="st7">
	<path d="M292.3,263.6c4.8,4.6,8.4,9.7,10.8,15.4c2.3,5.6,3.5,12,3.5,19.1c0,0.1,0,0.1,0,0.2s0,0.1,0,0.2l7.5,5
		c0.7,0.5,1.2,1,1.6,1.7s0.6,1.4,0.6,2.3v16c0,0.8-0.4,1.5-1.1,2c-0.7,0.5-1.4,0.5-2.2,0.2l-12.8-5.1l-19.2-0.1l-12.8,5.2
		c-0.8,0.3-1.5,0.3-2.2-0.3s-1.1-1.2-1.1-2v-15.9c0-0.8,0.2-1.6,0.5-2.3c0.4-0.7,0.9-1.3,1.6-1.7l7.5-5c0-0.1,0-0.1,0-0.2
		s0-0.1,0-0.2c0-7.1,1.2-13.5,3.5-19.1c2.3-5.6,5.9-10.7,10.8-15.4c0.2-0.2,0.5-0.4,0.8-0.5s0.6-0.2,1-0.2c0.4,0,0.7,0,1,0.1
		S292.1,263.4,292.3,263.6z"/>
	<path class="st3" d="M278.2,316.4c-0.7-2-1.3-4.1-1.8-6.2s-1-4.2-1.3-6.3l-5.4,3.6l0,0l0,0v12.4l0,0l0,0L278.2,316.4z"/>
	<path class="st1" d="M289.7,269.5c-3.7,4-6.3,8.4-8,12.9c-1.6,4.6-2.5,9.8-2.5,15.7c0,2.3,0.3,5.1,1,8.2c0.6,3.1,1.6,6.3,2.7,9.4
		l0,0l0,0h15.1l0,0l0,0c1.2-3.1,2.1-6.3,2.7-9.4c0.6-3.1,1-5.9,1-8.2c0-5.9-0.8-11.1-2.4-15.7c-1.6-4.5-4.3-8.8-7.9-12.9
		c-0.1-0.1-0.2-0.2-0.4-0.3c-0.2-0.1-0.3-0.1-0.5-0.1s-0.3,0-0.4,0.1S289.8,269.4,289.7,269.5z"/>
	<path class="st4" d="M290.6,297.3c-1.5,0-2.8-0.6-3.9-1.7c-1.1-1.1-1.7-2.4-1.7-3.9c0-1.5,0.6-2.8,1.7-3.9c1.1-1.1,2.4-1.7,3.9-1.7
		c1.5,0,2.8,0.6,3.9,1.7c1.1,1.1,1.7,2.4,1.7,3.9c0,1.5-0.6,2.8-1.7,3.9C293.4,296.7,292.1,297.3,290.6,297.3z"/>
	<path class="st3" d="M302.9,316.5l8.5,3.4c0,0,0,0,0,0s0,0,0,0v-12.4l0,0l0,0l-5.3-3.6c-0.3,2.1-0.8,4.2-1.3,6.3
		S303.6,314.5,302.9,316.5z"/>
	<path d="M280.4,334.8c0-2.6,0.9-4.9,2.8-6.9s4.2-2.9,6.8-2.9s4.9,1,6.8,2.9s2.8,4.2,2.8,6.9c0,2-0.7,4.3-2.1,7
		c-1.4,2.7-3.9,6.4-7.5,11.1c-3.6-4.7-6.1-8.4-7.5-11.1C281.1,339.1,280.4,336.8,280.4,334.8z"/>
	<path class="st5" d="M285.2,334.9c0,1.1,0.5,2.5,1.2,4.1c0.8,1.6,2,3.5,3.6,5.7c1.6-2.2,2.8-4.1,3.6-5.7c0.8-1.6,1.2-3,1.2-4.1
		c0.1-1.4-0.4-2.5-1.3-3.5c-0.9-1-2.1-1.5-3.5-1.5c-1.4,0-2.6,0.5-3.5,1.5C285.5,332.4,285.1,333.5,285.2,334.9z"/>
</g>
</svg>
